<?xml version="1.0" encoding="UTF-8"?>
<svg width="1039px" height="248px" viewBox="0 0 1039 248" version="1.1" xmlns="http://www.w3.org/2000/svg" xmlns:xlink="http://www.w3.org/1999/xlink">
    <title>Group</title>
    <g id="Page-1" stroke="none" stroke-width="1" fill="none" fill-rule="evenodd">
        <g id="Group-5" transform="translate(-572.000000, -97.000000)">
            <rect id="Rectangle" stroke="#979797" fill="#F4F9F9" x="0.5" y="0.5" width="2182" height="4239" rx="204"></rect>
            <g id="Group" transform="translate(572.156953, 97.700000)">
                <path d="M200.172654,78.3841169 C199.736032,120.326466 198.838456,123.273714 184.546179,126.948797 C186.586002,123.214327 188.497406,119.927331 187.557925,116.376546 C192.275607,93.0775429 191.257723,70.5768101 170.348526,48.0014983 C170.014639,62.0237142 173.58737,73.903858 163.586967,85.648655 C160.626588,63.8453731 148.709374,45.91467 135.263306,28.425916 C125.952306,19.0925038 117.748407,9.09893008 104.843047,0.3 C108.296823,10.6001759 114.854814,18.8052369 115.181943,28.425916 C115.791358,32.4438785 116.139799,35.3935196 116.73593,38.6473697 C121.30762,63.3039854 115.134081,168.23789 122.220066,171.1368 C125.617067,152.26005 129.82513,133.923306 138.711674,116.47046 C140.160773,116.58371 141.604464,116.695578 143.053563,116.808828 C139.495701,146.650059 140.467625,175.619821 171.80168,201.328828 C173.950997,188.111788 171.38128,177.764655 166.506793,167.674405 C171.27449,166.637206 172.116643,169.949062 174.739079,171.055316 C184.955766,185.533292 192.322919,200.380019 190.166844,217.332909 C188.9124,227.180087 182.44012,235.770473 180.302969,245.3 C207.954801,225.508968 219.721969,200.308202 224.420725,172.708482 C228.711247,155.853648 226.826878,139.066489 222.472823,122.457489 C218.493209,107.259965 212.707628,92.4367167 200.172654,78.3841169 Z" id="Fill-74" fill="#EB8C3C"></path>
                <path d="M103.495167,7.3 C101.368342,7.3 99.638835,9.06767885 99.638835,11.2414461 L99.638835,31.6844131 L81.9090542,19.9699576 C81.2826923,19.5567029 80.5593378,19.3381318 79.817286,19.3381318 C78.5014586,19.3381318 77.2896353,20.0117608 76.5756295,21.1392532 C75.4234041,22.9654566 75.9364132,25.4103475 77.7208434,26.5903926 L99.638835,41.0710266 L99.638835,53.6884316 L66.1214627,31.5446709 C65.4962694,31.1326106 64.7740835,30.9140395 64.0320316,30.9140395 C62.7162043,30.9140395 61.504381,31.5864741 60.7892066,32.7151609 C59.6358126,34.5401699 60.1499903,36.9850609 61.9344205,38.1651059 L99.638835,63.0750452 L99.638835,74.7118661 L81.9090542,62.9962162 C81.2826923,62.584156 80.5593378,62.3655849 79.817286,62.3655849 C78.5014586,62.3655849 77.2896353,63.0392138 76.5756295,64.1667063 C75.4234041,65.9917153 75.9364132,68.4366062 77.7208434,69.6166513 L99.638835,84.0984797 L99.638835,96.7158846 L66.1214627,74.5721239 C65.4962694,74.1588693 64.7740835,73.9402982 64.0320316,73.9402982 C62.7162043,73.9402982 61.504381,74.6139271 60.7892066,75.742614 C59.6358126,77.567623 60.1499903,80.0125139 61.9344205,81.192559 L99.638835,106.102498 L99.638835,112.677547 C94.0658502,114.378341 89.9886551,119.659878 89.9886551,125.901696 C89.9886551,127.002912 90.1288853,128.068297 90.3684454,129.095461 L84.7896177,132.38836 L44.829833,111.470031 C44.2794292,111.183381 43.6892935,111.037666 43.075786,111.037666 C41.620897,111.037666 40.303901,111.859398 39.6401444,113.181574 C38.6713869,115.116466 39.4216188,117.495666 41.3147275,118.488194 L76.8350555,137.08107 L66.1448344,143.389772 L42.9168584,131.229814 C42.3664546,130.943164 41.7763188,130.797449 41.1628114,130.797449 C39.7079223,130.797449 38.3909263,131.619181 37.7271697,132.942552 C36.7584123,134.876249 37.5086442,137.255449 39.4017529,138.247977 L58.1914408,148.083676 L48.3320841,153.900295 L8.37229937,132.98316 C7.82306414,132.695315 7.23292841,132.549601 6.61942097,132.549601 C5.16336331,132.549601 3.84519875,133.371333 3.18261071,134.694704 C2.21385325,136.628401 2.96525379,139.007601 4.85719388,140.000129 L40.3786905,158.594199 L29.6861322,164.904096 L6.45932474,152.744138 C5.90892092,152.456293 5.31761661,152.309384 4.70294058,152.309384 C3.24688292,152.309384 1.93222412,153.132311 1.26963608,154.454487 C0.799864666,155.390879 0.714557917,156.458652 1.03124462,157.460735 C1.34793131,158.462818 2.02687955,159.279772 2.94305066,159.759912 L21.7339072,169.596806 L4.41196277,179.818289 C3.52033195,180.343815 2.88228421,181.195407 2.61584669,182.211822 C2.34824059,183.229432 2.48613369,184.291233 3.00031136,185.202543 C3.68743969,186.417226 4.96820951,187.173267 6.34363477,187.173267 C7.01790866,187.173267 7.68400245,186.989332 8.26829526,186.645352 L25.5902396,176.423868 L24.5291639,197.972829 C24.4228226,200.144207 26.0635168,202.00027 28.1880054,202.108958 C28.2546148,202.111347 28.3200556,202.113736 28.3843278,202.113736 C30.4387013,202.113736 32.1296447,200.469078 32.2336488,198.370557 L33.5448018,171.729964 L44.2350229,165.422456 L42.2308986,206.159093 C42.1233888,208.330471 43.7652515,210.186534 45.8897402,210.295222 C45.955181,210.3 46.0217903,210.3 46.0860625,210.3 C48.1392674,210.3 49.8313794,208.655342 49.9353835,206.556821 L52.1895851,160.728552 L62.0477733,154.910739 L60.9878662,176.462088 C60.937617,177.513141 61.2893612,178.52239 61.9788267,179.303513 C62.6706294,180.083441 63.6183523,180.543276 64.6478763,180.595829 C64.7121485,180.599412 64.7787578,180.600607 64.8430301,180.600607 C66.8974035,180.600607 68.5883469,178.955949 68.692351,176.856233 L70.0011669,150.216835 L80.6925566,143.908132 L78.6872637,184.647158 C78.5809224,186.817342 80.2227852,188.673405 82.3472738,188.783288 C82.4127146,188.785676 82.4781554,188.786871 82.5424276,188.786871 C84.5968011,188.786871 86.2877445,187.142213 86.3917486,185.044886 L88.6459502,139.214228 L94.2306208,135.920135 C96.6519302,138.259921 99.9076097,139.706312 103.495167,139.706312 C104.929649,139.706312 105.621993,7.3 103.495167,7.3 Z" id="Fill-5" fill="#38A2CF"></path>
                <path d="M103.244978,150.3 C101.114219,150.3 99.3815146,152.069235 99.3815146,154.242251 L99.3815146,183.134176 L61.6073774,208.049206 C59.8196475,209.229492 59.304519,211.676077 60.4600458,213.501459 C61.175372,214.630376 62.3894361,215.305338 63.7076967,215.304143 C64.4511208,215.304143 65.1758129,215.085527 65.8021623,214.670994 L99.3815146,192.522708 L99.3815146,206.937013 L77.4229925,221.419411 C75.6352625,222.599698 75.1213048,225.045088 76.2756608,226.87047 C76.9921577,228.000582 78.2062219,228.674349 79.5233118,228.674349 C80.2667358,228.674349 80.9914279,228.455733 81.6189481,228.041199 L99.3815146,216.325545 L99.3815146,240.357749 C99.3815146,242.53196 101.114219,244.3 103.244978,244.3 C105.375737,244.3 105.375737,150.3 103.244978,150.3 Z" id="Fill-7" fill="#38A2CF"></path>
                <path d="M25.225053,86.2351757 L6.35655383,96.1045438 C5.43659715,96.5850121 4.75484354,97.4045638 4.43684831,98.4098327 C4.12002649,99.4151016 4.20451231,100.48627 4.67622479,101.425639 C5.3415506,102.752019 6.66398833,103.577562 8.12488892,103.577562 C8.73389086,103.577562 9.3440662,103.426592 9.88853036,103.141426 L33.2101362,90.9428056 L45.4711405,98.1713959 L9.80404454,116.824586 C7.90546048,117.820269 7.14978178,120.207034 8.12254209,122.146879 C8.78904132,123.475656 10.1126525,124.3 11.5723796,124.3 C12.1872486,124.3 12.7809962,124.153823 13.3360211,123.865062 L53.4585704,102.880224 L78.034556,117.369755 C78.6224365,117.716028 79.2901091,117.898151 79.9683425,117.898151 C81.3494509,117.898151 82.6343394,117.140904 83.3254803,115.921162 C84.3921137,114.034036 83.7572967,111.611326 81.9068226,110.519788 L57.3320105,96.0314552 L55.0673212,50.0562789 C54.9628874,47.9498871 53.2719976,46.3 51.2185229,46.3 C51.1469446,46.3 51.0730195,46.3023964 51.0037881,46.3059909 C48.8705212,46.4150248 47.2230477,48.2769889 47.3310018,50.4552712 L49.3445805,91.3226271 L37.0847497,84.0952349 L35.7693524,57.3687415 C35.6602249,55.1988464 33.8918898,53.5214013 31.7058193,53.6184534 C29.5737258,53.7274874 27.925079,55.5894515 28.0330331,57.7677338 L29.0973197,79.3864069 L8.65292528,67.3339637 C8.06621822,66.9864929 7.39737216,66.8031721 6.72148562,66.8031721 C5.34037719,66.8031721 4.05314189,67.5616169 3.36317438,68.7813592 C2.84687216,69.6955668 2.7084093,70.7607444 2.97712113,71.7815896 C3.24465955,72.8012366 3.88534367,73.6555354 4.78065865,74.1827325 L25.225053,86.2351757 Z" id="Fill-6" fill="#38A2CF"></path>
                <text id="Hot&amp;Cold" font-family="OpenSans-Light, Open Sans" font-size="165" font-weight="300">
                    <tspan x="314.843047" y="198.3" fill="#EB8C3C">Hot</tspan>
                    <tspan x="585.465606" y="198.3" fill="#A6959B">&amp;</tspan>
                    <tspan x="703.092559" y="198.3" fill="#38A2CF">Cold</tspan>
                </text>
            </g>
        </g>
    </g>
</svg>
